<svg width="90" height="78" viewBox="0 0 90 78" fill="none" xmlns="http://www.w3.org/2000/svg">
<path d="M8.93945 12.2246C8.93945 12.8171 8.7959 13.332 8.50879 13.7695C8.22168 14.207 7.80241 14.5443 7.25098 14.7812C6.7041 15.0182 6.03874 15.1367 5.25488 15.1367C4.90853 15.1367 4.56901 15.1139 4.23633 15.0684C3.9082 15.0228 3.59147 14.9567 3.28613 14.8701C2.98535 14.779 2.69824 14.6673 2.4248 14.5352V12.5664C2.89876 12.776 3.39095 12.9652 3.90137 13.1338C4.41178 13.3024 4.91764 13.3867 5.41895 13.3867C5.7653 13.3867 6.04329 13.3411 6.25293 13.25C6.46712 13.1589 6.62207 13.0335 6.71777 12.874C6.81348 12.7145 6.86133 12.5322 6.86133 12.3271C6.86133 12.0765 6.77702 11.8623 6.6084 11.6846C6.43978 11.5068 6.20736 11.3405 5.91113 11.1855C5.61947 11.0306 5.28906 10.8643 4.91992 10.6865C4.6875 10.5771 4.43457 10.445 4.16113 10.29C3.8877 10.1305 3.62793 9.93685 3.38184 9.70898C3.13574 9.48112 2.93294 9.2054 2.77344 8.88184C2.61849 8.55371 2.54102 8.16178 2.54102 7.70605C2.54102 7.10905 2.67773 6.59863 2.95117 6.1748C3.22461 5.75098 3.61426 5.42741 4.12012 5.2041C4.63053 4.97624 5.2321 4.8623 5.9248 4.8623C6.44434 4.8623 6.9388 4.92383 7.4082 5.04688C7.88216 5.16536 8.37663 5.33854 8.8916 5.56641L8.20801 7.21387C7.74772 7.02702 7.33529 6.88346 6.9707 6.7832C6.60612 6.67839 6.2347 6.62598 5.85645 6.62598C5.59212 6.62598 5.36654 6.66927 5.17969 6.75586C4.99284 6.83789 4.85156 6.95638 4.75586 7.11133C4.66016 7.26172 4.6123 7.43717 4.6123 7.6377C4.6123 7.87467 4.68066 8.0752 4.81738 8.23926C4.95866 8.39876 5.16829 8.55371 5.44629 8.7041C5.72884 8.85449 6.07975 9.02995 6.49902 9.23047C7.00944 9.47201 7.44466 9.72493 7.80469 9.98926C8.16927 10.249 8.44954 10.5566 8.64551 10.9121C8.84147 11.263 8.93945 11.7005 8.93945 12.2246ZM28.2236 15H27.5195V10.0781H21.6816V15H20.9775V5.00586H21.6816V9.43555H27.5195V5.00586H28.2236V15ZM46.5918 15H41.1299V5.00586H46.5918V5.6416H41.834V9.42871H46.3252V10.0645H41.834V14.3643H46.5918V15ZM58.9443 15V5.00586H59.6484V15H58.9443Z" fill="#F15239"/>
<path d="M20.2759 24.6143C20.2759 25.3844 20.1802 26.0863 19.9888 26.7197C19.7974 27.3486 19.5057 27.891 19.1138 28.3467C18.7264 28.8024 18.2342 29.1533 17.6372 29.3994C17.0402 29.641 16.3338 29.7617 15.5181 29.7617C14.7023 29.7617 13.9959 29.641 13.3989 29.3994C12.8019 29.1533 12.3075 28.8024 11.9155 28.3467C11.5282 27.891 11.2388 27.3464 11.0474 26.7129C10.856 26.0794 10.7603 25.3753 10.7603 24.6006C10.7603 23.5661 10.9289 22.666 11.2661 21.9004C11.6079 21.1302 12.132 20.5332 12.8384 20.1094C13.5448 19.6855 14.4425 19.4736 15.5317 19.4736C16.6164 19.4736 17.5073 19.6855 18.2046 20.1094C18.9064 20.5332 19.4259 21.1302 19.7632 21.9004C20.105 22.6706 20.2759 23.5752 20.2759 24.6143ZM12.9819 24.6143C12.9819 25.3115 13.0685 25.9131 13.2417 26.4189C13.4194 26.9202 13.6951 27.3076 14.0688 27.5811C14.4425 27.8499 14.9256 27.9844 15.5181 27.9844C16.1196 27.9844 16.6073 27.8499 16.981 27.5811C17.3547 27.3076 17.6258 26.9202 17.7944 26.4189C17.9676 25.9131 18.0542 25.3115 18.0542 24.6143C18.0542 23.5661 17.8582 22.7412 17.4663 22.1396C17.0744 21.5381 16.4295 21.2373 15.5317 21.2373C14.9347 21.2373 14.4471 21.374 14.0688 21.6475C13.6951 21.9163 13.4194 22.3037 13.2417 22.8096C13.0685 23.3109 12.9819 23.9124 12.9819 24.6143ZM38.0356 29.625H32.5737V19.6309H38.0356V20.2666H33.2778V24.0537H37.769V24.6895H33.2778V28.9893H38.0356V29.625ZM58.2769 29.625H55.8706L53.2524 25.4141L52.3569 26.0566V29.625H50.2378V19.6309H52.3569V24.2041C52.4982 24.0081 52.6372 23.8122 52.7739 23.6162C52.9106 23.4202 53.0496 23.2243 53.1909 23.0283L55.8979 19.6309H58.2495L54.7632 24.0537L58.2769 29.625ZM74.0884 29.625L70.4175 20.3965H70.3833C70.3924 20.5651 70.3993 20.7428 70.4038 20.9297C70.4129 21.112 70.4198 21.3034 70.4243 21.5039C70.4289 21.7044 70.4312 21.9141 70.4312 22.1328V29.625H69.7612V19.6309H70.8276L74.3687 28.5312H74.4097L77.978 19.6309H79.0171V29.625H78.3267V22.0508C78.3267 21.873 78.3289 21.6908 78.3335 21.5039C78.3381 21.3171 78.3426 21.1325 78.3472 20.9502C78.3563 20.7633 78.3654 20.5833 78.3745 20.4102H78.3335L74.6489 29.625H74.0884Z" fill="#F15239"/>
<path d="M8.69336 41.6729C8.69336 42.2699 8.54297 42.7712 8.24219 43.1768C7.94141 43.5778 7.53353 43.8809 7.01855 44.0859C6.50358 44.2865 5.92025 44.3867 5.26855 44.3867C4.86296 44.3867 4.49382 44.3662 4.16113 44.3252C3.83301 44.2887 3.53451 44.2386 3.26562 44.1748C3.0013 44.111 2.75977 44.0381 2.54102 43.9561V43.252C2.89648 43.3887 3.30664 43.5094 3.77148 43.6143C4.24089 43.7145 4.7513 43.7646 5.30273 43.7646C5.82227 43.7646 6.28255 43.6895 6.68359 43.5391C7.08919 43.3887 7.4082 43.1608 7.64062 42.8555C7.87305 42.5501 7.98926 42.165 7.98926 41.7002C7.98926 41.29 7.89128 40.9551 7.69531 40.6953C7.50391 40.431 7.21452 40.2054 6.82715 40.0186C6.43978 39.8271 5.95215 39.6335 5.36426 39.4375C4.9541 39.2962 4.5804 39.1481 4.24316 38.9932C3.91048 38.8337 3.62565 38.6514 3.38867 38.4463C3.15169 38.2367 2.9694 37.986 2.8418 37.6943C2.71875 37.3981 2.65723 37.0495 2.65723 36.6484C2.65723 36.097 2.79622 35.6344 3.07422 35.2607C3.35677 34.8825 3.7373 34.5977 4.21582 34.4062C4.69889 34.2103 5.24121 34.1123 5.84277 34.1123C6.32129 34.1123 6.77474 34.1579 7.20312 34.249C7.63607 34.3356 8.05306 34.4678 8.4541 34.6455L8.20801 35.2539C7.80697 35.0807 7.40592 34.9531 7.00488 34.8711C6.60384 34.7891 6.20736 34.748 5.81543 34.748C5.34603 34.748 4.92676 34.8187 4.55762 34.96C4.19303 35.0967 3.90365 35.304 3.68945 35.582C3.47526 35.86 3.36816 36.2109 3.36816 36.6348C3.36816 37.0723 3.46615 37.4255 3.66211 37.6943C3.86263 37.9632 4.14518 38.1865 4.50977 38.3643C4.87891 38.542 5.31413 38.7152 5.81543 38.8838C6.40788 39.0843 6.91829 39.2962 7.34668 39.5195C7.77507 39.7383 8.10547 40.0163 8.33789 40.3535C8.57487 40.6908 8.69336 41.1305 8.69336 41.6729ZM28.9482 44.25H26.8359V39.9365H22.8779V44.25H20.7588V34.2559H22.8779V38.1729H26.8359V34.2559H28.9482V44.25ZM47.166 44.25H41.7041V34.2559H47.166V34.8916H42.4082V38.6787H46.8994V39.3145H42.4082V43.6143H47.166V44.25ZM63.0049 44.25V34.2559H65.124V44.25H63.0049Z" fill="#F15239"/>
<path d="M19.8926 53.8643C19.8926 54.6253 19.7992 55.3203 19.6123 55.9492C19.4255 56.5781 19.1452 57.1204 18.7715 57.5762C18.3978 58.0319 17.9307 58.3851 17.3701 58.6357C16.8141 58.8864 16.1647 59.0117 15.4219 59.0117C14.6745 59.0117 14.0205 58.8864 13.46 58.6357C12.8994 58.3851 12.4323 58.0319 12.0586 57.5762C11.6895 57.1159 11.4115 56.5713 11.2246 55.9424C11.0378 55.3089 10.9443 54.6117 10.9443 53.8506C10.9443 52.8389 11.1152 51.9479 11.457 51.1777C11.8034 50.4076 12.3115 49.806 12.9814 49.373C13.6559 48.9401 14.4876 48.7236 15.4766 48.7236C16.4245 48.7236 17.2266 48.931 17.8828 49.3457C18.5436 49.7559 19.0426 50.346 19.3799 51.1162C19.7217 51.8818 19.8926 52.7979 19.8926 53.8643ZM11.6826 53.8574C11.6826 54.7507 11.8171 55.5391 12.0859 56.2227C12.3548 56.9017 12.7673 57.4326 13.3232 57.8154C13.8792 58.1982 14.5811 58.3896 15.4287 58.3896C16.2855 58.3896 16.9896 58.2005 17.541 57.8223C18.0924 57.444 18.5003 56.9154 18.7646 56.2363C19.029 55.5573 19.1611 54.7666 19.1611 53.8643C19.1611 52.4378 18.849 51.3304 18.2246 50.542C17.6048 49.7536 16.6888 49.3594 15.4766 49.3594C14.6243 49.3594 13.9157 49.5485 13.3506 49.9268C12.79 50.305 12.3708 50.8314 12.0928 51.5059C11.8193 52.1803 11.6826 52.9642 11.6826 53.8574ZM37.8711 58.875H32.1152V48.8809H37.8711V50.6172H34.2344V52.8115H37.6182V54.5479H34.2344V57.125H37.8711V58.875ZM56.916 58.875H56.0615L52.1924 53.6045L50.8936 54.8555V58.875H50.1895V48.8809H50.8936V54.1377C51.0622 53.9463 51.2376 53.7549 51.4199 53.5635C51.6068 53.3675 51.7936 53.1693 51.9805 52.9688L55.9248 48.8809H56.7998L52.7119 53.1123L56.916 58.875ZM72.4814 58.875L70.0752 51.0342H70.0137C70.0228 51.221 70.0365 51.5036 70.0547 51.8818C70.0775 52.2555 70.098 52.6543 70.1162 53.0781C70.1344 53.502 70.1436 53.8848 70.1436 54.2266V58.875H68.25V48.8809H71.1348L73.5 56.5234H73.541L76.0498 48.8809H78.9346V58.875H76.959V54.1445C76.959 53.8301 76.9635 53.4678 76.9727 53.0576C76.9863 52.6475 77.0023 52.2578 77.0205 51.8887C77.0387 51.515 77.0524 51.2347 77.0615 51.0479H77L74.4229 58.875H72.4814Z" fill="#F15239"/>
<path d="M8.69336 70.9229C8.69336 71.5199 8.54297 72.0212 8.24219 72.4268C7.94141 72.8278 7.53353 73.1309 7.01855 73.3359C6.50358 73.5365 5.92025 73.6367 5.26855 73.6367C4.86296 73.6367 4.49382 73.6162 4.16113 73.5752C3.83301 73.5387 3.53451 73.4886 3.26562 73.4248C3.0013 73.361 2.75977 73.2881 2.54102 73.2061V72.502C2.89648 72.6387 3.30664 72.7594 3.77148 72.8643C4.24089 72.9645 4.7513 73.0146 5.30273 73.0146C5.82227 73.0146 6.28255 72.9395 6.68359 72.7891C7.08919 72.6387 7.4082 72.4108 7.64062 72.1055C7.87305 71.8001 7.98926 71.415 7.98926 70.9502C7.98926 70.54 7.89128 70.2051 7.69531 69.9453C7.50391 69.681 7.21452 69.4554 6.82715 69.2686C6.43978 69.0771 5.95215 68.8835 5.36426 68.6875C4.9541 68.5462 4.5804 68.3981 4.24316 68.2432C3.91048 68.0837 3.62565 67.9014 3.38867 67.6963C3.15169 67.4867 2.9694 67.236 2.8418 66.9443C2.71875 66.6481 2.65723 66.2995 2.65723 65.8984C2.65723 65.347 2.79622 64.8844 3.07422 64.5107C3.35677 64.1325 3.7373 63.8477 4.21582 63.6562C4.69889 63.4603 5.24121 63.3623 5.84277 63.3623C6.32129 63.3623 6.77474 63.4079 7.20312 63.499C7.63607 63.5856 8.05306 63.7178 8.4541 63.8955L8.20801 64.5039C7.80697 64.3307 7.40592 64.2031 7.00488 64.1211C6.60384 64.0391 6.20736 63.998 5.81543 63.998C5.34603 63.998 4.92676 64.0687 4.55762 64.21C4.19303 64.3467 3.90365 64.554 3.68945 64.832C3.47526 65.11 3.36816 65.4609 3.36816 65.8848C3.36816 66.3223 3.46615 66.6755 3.66211 66.9443C3.86263 67.2132 4.14518 67.4365 4.50977 67.6143C4.87891 67.792 5.31413 67.9652 5.81543 68.1338C6.40788 68.3343 6.91829 68.5462 7.34668 68.7695C7.77507 68.9883 8.10547 69.2663 8.33789 69.6035C8.57487 69.9408 8.69336 70.3805 8.69336 70.9229ZM28.1553 73.5H27.4512V68.5781H21.6133V73.5H20.9092V63.5059H21.6133V67.9355H27.4512V63.5059H28.1553V73.5ZM46.667 73.5H40.9111V63.5059H46.667V65.2422H43.0303V67.4365H46.4141V69.1729H43.0303V71.75H46.667V73.5ZM58.9854 73.5V63.5059H59.6895V73.5H58.9854Z" fill="#F15239"/>
</svg>
