<svg width="75" height="66" viewBox="0 0 75 66" fill="none" xmlns="http://www.w3.org/2000/svg">
<path d="M6.13477 10.6211C6.13477 11.1289 6.01172 11.5703 5.76562 11.9453C5.51953 12.3203 5.16016 12.6094 4.6875 12.8125C4.21875 13.0156 3.64844 13.1172 2.97656 13.1172C2.67969 13.1172 2.38867 13.0977 2.10352 13.0586C1.82227 13.0195 1.55078 12.9629 1.28906 12.8887C1.03125 12.8105 0.785156 12.7148 0.550781 12.6016V10.9141C0.957031 11.0938 1.37891 11.2559 1.81641 11.4004C2.25391 11.5449 2.6875 11.6172 3.11719 11.6172C3.41406 11.6172 3.65234 11.5781 3.83203 11.5C4.01562 11.4219 4.14844 11.3145 4.23047 11.1777C4.3125 11.041 4.35352 10.8848 4.35352 10.709C4.35352 10.4941 4.28125 10.3105 4.13672 10.1582C3.99219 10.0059 3.79297 9.86328 3.53906 9.73047C3.28906 9.59766 3.00586 9.45508 2.68945 9.30273C2.49023 9.20898 2.27344 9.0957 2.03906 8.96289C1.80469 8.82617 1.58203 8.66016 1.37109 8.46484C1.16016 8.26953 0.986328 8.0332 0.849609 7.75586C0.716797 7.47461 0.650391 7.13867 0.650391 6.74805C0.650391 6.23633 0.767578 5.79883 1.00195 5.43555C1.23633 5.07227 1.57031 4.79492 2.00391 4.60352C2.44141 4.4082 2.95703 4.31055 3.55078 4.31055C3.99609 4.31055 4.41992 4.36328 4.82227 4.46875C5.22852 4.57031 5.65234 4.71875 6.09375 4.91406L5.50781 6.32617C5.11328 6.16602 4.75977 6.04297 4.44727 5.95703C4.13477 5.86719 3.81641 5.82227 3.49219 5.82227C3.26562 5.82227 3.07227 5.85938 2.91211 5.93359C2.75195 6.00391 2.63086 6.10547 2.54883 6.23828C2.4668 6.36719 2.42578 6.51758 2.42578 6.68945C2.42578 6.89258 2.48438 7.06445 2.60156 7.20508C2.72266 7.3418 2.90234 7.47461 3.14062 7.60352C3.38281 7.73242 3.68359 7.88281 4.04297 8.05469C4.48047 8.26172 4.85352 8.47852 5.16211 8.70508C5.47461 8.92773 5.71484 9.19141 5.88281 9.49609C6.05078 9.79688 6.13477 10.1719 6.13477 10.6211ZM22.6641 13H22.0605V8.78125H17.0566V13H16.4531V4.43359H17.0566V8.23047H22.0605V4.43359H22.6641V13ZM38.4082 13H33.7266V4.43359H38.4082V4.97852H34.3301V8.22461H38.1797V8.76953H34.3301V12.4551H38.4082V13ZM48.9961 13V4.43359H49.5996V13H48.9961Z" fill="#F15239"/>
<path d="M15.0879 20.7051C15.0879 21.3652 15.0059 21.9668 14.8418 22.5098C14.6777 23.0488 14.4277 23.5137 14.0918 23.9043C13.7598 24.2949 13.3379 24.5957 12.8262 24.8066C12.3145 25.0137 11.709 25.1172 11.0098 25.1172C10.3105 25.1172 9.70508 25.0137 9.19336 24.8066C8.68164 24.5957 8.25781 24.2949 7.92188 23.9043C7.58984 23.5137 7.3418 23.0469 7.17773 22.5039C7.01367 21.9609 6.93164 21.3574 6.93164 20.6934C6.93164 19.8066 7.07617 19.0352 7.36523 18.3789C7.6582 17.7188 8.10742 17.207 8.71289 16.8438C9.31836 16.4805 10.0879 16.2988 11.0215 16.2988C11.9512 16.2988 12.7148 16.4805 13.3125 16.8438C13.9141 17.207 14.3594 17.7188 14.6484 18.3789C14.9414 19.0391 15.0879 19.8145 15.0879 20.7051ZM8.83594 20.7051C8.83594 21.3027 8.91016 21.8184 9.05859 22.252C9.21094 22.6816 9.44727 23.0137 9.76758 23.248C10.0879 23.4785 10.502 23.5938 11.0098 23.5938C11.5254 23.5938 11.9434 23.4785 12.2637 23.248C12.584 23.0137 12.8164 22.6816 12.9609 22.252C13.1094 21.8184 13.1836 21.3027 13.1836 20.7051C13.1836 19.8066 13.0156 19.0996 12.6797 18.584C12.3438 18.0684 11.791 17.8105 11.0215 17.8105C10.5098 17.8105 10.0918 17.9277 9.76758 18.1621C9.44727 18.3926 9.21094 18.7246 9.05859 19.1582C8.91016 19.5879 8.83594 20.1035 8.83594 20.7051ZM30.3105 25H25.6289V16.4336H30.3105V16.9785H26.2324V20.2246H30.082V20.7695H26.2324V24.4551H30.3105V25ZM47.6602 25H45.5977L43.3535 21.3906L42.5859 21.9414V25H40.7695V16.4336H42.5859V20.3535C42.707 20.1855 42.8262 20.0176 42.9434 19.8496C43.0605 19.6816 43.1797 19.5137 43.3008 19.3457L45.6211 16.4336H47.6367L44.6484 20.2246L47.6602 25ZM61.2129 25L58.0664 17.0898H58.0371C58.0449 17.2344 58.0508 17.3867 58.0547 17.5469C58.0625 17.7031 58.0684 17.8672 58.0723 18.0391C58.0762 18.2109 58.0781 18.3906 58.0781 18.5781V25H57.5039V16.4336H58.418L61.4531 24.0625H61.4883L64.5469 16.4336H65.4375V25H64.8457V18.5078C64.8457 18.3555 64.8477 18.1992 64.8516 18.0391C64.8555 17.8789 64.8594 17.7207 64.8633 17.5645C64.8711 17.4043 64.8789 17.25 64.8867 17.1016H64.8516L61.6934 25H61.2129Z" fill="#F15239"/>
<path d="M5.92383 33.791C5.92383 34.3027 5.79492 34.7324 5.53711 35.0801C5.2793 35.4238 4.92969 35.6836 4.48828 35.8594C4.04688 36.0312 3.54688 36.1172 2.98828 36.1172C2.64062 36.1172 2.32422 36.0996 2.03906 36.0645C1.75781 36.0332 1.50195 35.9902 1.27148 35.9355C1.04492 35.8809 0.837891 35.8184 0.650391 35.748V35.1445C0.955078 35.2617 1.30664 35.3652 1.70508 35.4551C2.10742 35.541 2.54492 35.584 3.01758 35.584C3.46289 35.584 3.85742 35.5195 4.20117 35.3906C4.54883 35.2617 4.82227 35.0664 5.02148 34.8047C5.2207 34.543 5.32031 34.2129 5.32031 33.8145C5.32031 33.4629 5.23633 33.1758 5.06836 32.9531C4.9043 32.7266 4.65625 32.5332 4.32422 32.373C3.99219 32.209 3.57422 32.043 3.07031 31.875C2.71875 31.7539 2.39844 31.627 2.10938 31.4941C1.82422 31.3574 1.58008 31.2012 1.37695 31.0254C1.17383 30.8457 1.01758 30.6309 0.908203 30.3809C0.802734 30.127 0.75 29.8281 0.75 29.4844C0.75 29.0117 0.869141 28.6152 1.10742 28.2949C1.34961 27.9707 1.67578 27.7266 2.08594 27.5625C2.5 27.3945 2.96484 27.3105 3.48047 27.3105C3.89062 27.3105 4.2793 27.3496 4.64648 27.4277C5.01758 27.502 5.375 27.6152 5.71875 27.7676L5.50781 28.2891C5.16406 28.1406 4.82031 28.0312 4.47656 27.9609C4.13281 27.8906 3.79297 27.8555 3.45703 27.8555C3.05469 27.8555 2.69531 27.916 2.37891 28.0371C2.06641 28.1543 1.81836 28.332 1.63477 28.5703C1.45117 28.8086 1.35938 29.1094 1.35938 29.4727C1.35938 29.8477 1.44336 30.1504 1.61133 30.3809C1.7832 30.6113 2.02539 30.8027 2.33789 30.9551C2.6543 31.1074 3.02734 31.2559 3.45703 31.4004C3.96484 31.5723 4.40234 31.7539 4.76953 31.9453C5.13672 32.1328 5.41992 32.3711 5.61914 32.6602C5.82227 32.9492 5.92383 33.3262 5.92383 33.791ZM23.2852 36H21.4746V32.3027H18.082V36H16.2656V27.4336H18.082V30.791H21.4746V27.4336H23.2852V36ZM38.9004 36H34.2188V27.4336H38.9004V27.9785H34.8223V31.2246H38.6719V31.7695H34.8223V35.4551H38.9004V36ZM52.4766 36V27.4336H54.293V36H52.4766Z" fill="#F15239"/>
<path d="M17.0508 43.7051C17.0508 44.3574 16.9707 44.9531 16.8105 45.4922C16.6504 46.0312 16.4102 46.4961 16.0898 46.8867C15.7695 47.2773 15.3691 47.5801 14.8887 47.7949C14.4121 48.0098 13.8555 48.1172 13.2188 48.1172C12.5781 48.1172 12.0176 48.0098 11.5371 47.7949C11.0566 47.5801 10.6562 47.2773 10.3359 46.8867C10.0195 46.4922 9.78125 46.0254 9.62109 45.4863C9.46094 44.9434 9.38086 44.3457 9.38086 43.6934C9.38086 42.8262 9.52734 42.0625 9.82031 41.4023C10.1172 40.7422 10.5527 40.2266 11.127 39.8555C11.7051 39.4844 12.418 39.2988 13.2656 39.2988C14.0781 39.2988 14.7656 39.4766 15.3281 39.832C15.8945 40.1836 16.3223 40.6895 16.6113 41.3496C16.9043 42.0059 17.0508 42.791 17.0508 43.7051ZM10.0137 43.6992C10.0137 44.4648 10.1289 45.1406 10.3594 45.7266C10.5898 46.3086 10.9434 46.7637 11.4199 47.0918C11.8965 47.4199 12.498 47.584 13.2246 47.584C13.959 47.584 14.5625 47.4219 15.0352 47.0977C15.5078 46.7734 15.8574 46.3203 16.084 45.7383C16.3105 45.1562 16.4238 44.4785 16.4238 43.7051C16.4238 42.4824 16.1562 41.5332 15.6211 40.8574C15.0898 40.1816 14.3047 39.8438 13.2656 39.8438C12.5352 39.8438 11.9277 40.0059 11.4434 40.3301C10.9629 40.6543 10.6035 41.1055 10.3652 41.6836C10.1309 42.2617 10.0137 42.9336 10.0137 43.6992ZM32.4609 48H27.5273V39.4336H32.4609V40.9219H29.3438V42.8027H32.2441V44.291H29.3438V46.5H32.4609V48ZM48.7852 48H48.0527L44.7363 43.4824L43.623 44.5547V48H43.0195V39.4336H43.623V43.9395C43.7676 43.7754 43.918 43.6113 44.0742 43.4473C44.2344 43.2793 44.3945 43.1094 44.5547 42.9375L47.9355 39.4336H48.6855L45.1816 43.0605L48.7852 48ZM62.127 48L60.0645 41.2793H60.0117C60.0195 41.4395 60.0312 41.6816 60.0469 42.0059C60.0664 42.3262 60.084 42.668 60.0996 43.0312C60.1152 43.3945 60.123 43.7227 60.123 44.0156V48H58.5V39.4336H60.9727L63 45.9844H63.0352L65.1855 39.4336H67.6582V48H65.9648V43.9453C65.9648 43.6758 65.9688 43.3652 65.9766 43.0137C65.9883 42.6621 66.002 42.3281 66.0176 42.0117C66.0332 41.6914 66.0449 41.4512 66.0527 41.291H66L63.791 48H62.127Z" fill="#F15239"/>
<path d="M6.92383 57.791C6.92383 58.3027 6.79492 58.7324 6.53711 59.0801C6.2793 59.4238 5.92969 59.6836 5.48828 59.8594C5.04688 60.0312 4.54688 60.1172 3.98828 60.1172C3.64062 60.1172 3.32422 60.0996 3.03906 60.0645C2.75781 60.0332 2.50195 59.9902 2.27148 59.9355C2.04492 59.8809 1.83789 59.8184 1.65039 59.748V59.1445C1.95508 59.2617 2.30664 59.3652 2.70508 59.4551C3.10742 59.541 3.54492 59.584 4.01758 59.584C4.46289 59.584 4.85742 59.5195 5.20117 59.3906C5.54883 59.2617 5.82227 59.0664 6.02148 58.8047C6.2207 58.543 6.32031 58.2129 6.32031 57.8145C6.32031 57.4629 6.23633 57.1758 6.06836 56.9531C5.9043 56.7266 5.65625 56.5332 5.32422 56.373C4.99219 56.209 4.57422 56.043 4.07031 55.875C3.71875 55.7539 3.39844 55.627 3.10938 55.4941C2.82422 55.3574 2.58008 55.2012 2.37695 55.0254C2.17383 54.8457 2.01758 54.6309 1.9082 54.3809C1.80273 54.127 1.75 53.8281 1.75 53.4844C1.75 53.0117 1.86914 52.6152 2.10742 52.2949C2.34961 51.9707 2.67578 51.7266 3.08594 51.5625C3.5 51.3945 3.96484 51.3105 4.48047 51.3105C4.89062 51.3105 5.2793 51.3496 5.64648 51.4277C6.01758 51.502 6.375 51.6152 6.71875 51.7676L6.50781 52.2891C6.16406 52.1406 5.82031 52.0312 5.47656 51.9609C5.13281 51.8906 4.79297 51.8555 4.45703 51.8555C4.05469 51.8555 3.69531 51.916 3.37891 52.0371C3.06641 52.1543 2.81836 52.332 2.63477 52.5703C2.45117 52.8086 2.35938 53.1094 2.35938 53.4727C2.35938 53.8477 2.44336 54.1504 2.61133 54.3809C2.7832 54.6113 3.02539 54.8027 3.33789 54.9551C3.6543 55.1074 4.02734 55.2559 4.45703 55.4004C4.96484 55.5723 5.40234 55.7539 5.76953 55.9453C6.13672 56.1328 6.41992 56.3711 6.61914 56.6602C6.82227 56.9492 6.92383 57.3262 6.92383 57.791ZM23.6055 60H23.002V55.7812H17.998V60H17.3945V51.4336H17.998V55.2305H23.002V51.4336H23.6055V60ZM39.4727 60H34.5391V51.4336H39.4727V52.9219H36.3555V54.8027H39.2559V56.291H36.3555V58.5H39.4727V60ZM50.0312 60V51.4336H50.6348V60H50.0312Z" fill="#F15239"/>
</svg>
