<svg width="96" height="15" viewBox="0 0 96 15" fill="none" xmlns="http://www.w3.org/2000/svg">
<path d="M9.20215 10.4316C9.20215 11.1934 9.01758 11.8555 8.64844 12.418C8.2793 12.9805 7.74023 13.4141 7.03125 13.7188C6.32812 14.0234 5.47266 14.1758 4.46484 14.1758C4.01953 14.1758 3.58301 14.1465 3.15527 14.0879C2.7334 14.0293 2.32617 13.9443 1.93359 13.833C1.54688 13.7158 1.17773 13.5723 0.826172 13.4023V10.8711C1.43555 11.1406 2.06836 11.3838 2.72461 11.6006C3.38086 11.8174 4.03125 11.9258 4.67578 11.9258C5.12109 11.9258 5.47852 11.8672 5.74805 11.75C6.02344 11.6328 6.22266 11.4717 6.3457 11.2666C6.46875 11.0615 6.53027 10.8271 6.53027 10.5635C6.53027 10.2412 6.42188 9.96582 6.20508 9.7373C5.98828 9.50879 5.68945 9.29492 5.30859 9.0957C4.93359 8.89648 4.50879 8.68262 4.03418 8.4541C3.73535 8.31348 3.41016 8.14355 3.05859 7.94434C2.70703 7.73926 2.37305 7.49023 2.05664 7.19727C1.74023 6.9043 1.47949 6.5498 1.27441 6.13379C1.0752 5.71191 0.975586 5.20801 0.975586 4.62207C0.975586 3.85449 1.15137 3.19824 1.50293 2.65332C1.85449 2.1084 2.35547 1.69238 3.00586 1.40527C3.66211 1.1123 4.43555 0.96582 5.32617 0.96582C5.99414 0.96582 6.62988 1.04492 7.2334 1.20312C7.84277 1.35547 8.47852 1.57813 9.14062 1.87109L8.26172 3.98926C7.66992 3.74902 7.13965 3.56445 6.6709 3.43555C6.20215 3.30078 5.72461 3.2334 5.23828 3.2334C4.89844 3.2334 4.6084 3.28906 4.36816 3.40039C4.12793 3.50586 3.94629 3.6582 3.82324 3.85742C3.7002 4.05078 3.63867 4.27637 3.63867 4.53418C3.63867 4.83887 3.72656 5.09668 3.90234 5.30762C4.08398 5.5127 4.35352 5.71191 4.71094 5.90527C5.07422 6.09863 5.52539 6.32422 6.06445 6.58203C6.7207 6.89258 7.28027 7.21777 7.74316 7.55762C8.21191 7.8916 8.57227 8.28711 8.82422 8.74414C9.07617 9.19531 9.20215 9.75781 9.20215 10.4316ZM20.61 9.06934C20.61 9.88965 20.4987 10.6162 20.276 11.249C20.0592 11.8818 19.7399 12.418 19.318 12.8574C18.902 13.291 18.3981 13.6191 17.8063 13.8418C17.2204 14.0645 16.5582 14.1758 15.82 14.1758C15.1286 14.1758 14.4928 14.0645 13.9127 13.8418C13.3385 13.6191 12.8375 13.291 12.4098 12.8574C11.9879 12.418 11.6598 11.8818 11.4254 11.249C11.1969 10.6162 11.0827 9.88965 11.0827 9.06934C11.0827 7.97949 11.276 7.05664 11.6627 6.30078C12.0495 5.54492 12.6002 4.9707 13.3151 4.57812C14.0299 4.18555 14.8825 3.98926 15.8727 3.98926C16.7926 3.98926 17.6071 4.18555 18.3161 4.57812C19.0309 4.9707 19.5905 5.54492 19.9948 6.30078C20.4049 7.05664 20.61 7.97949 20.61 9.06934ZM13.8161 9.06934C13.8161 9.71387 13.8864 10.2559 14.027 10.6953C14.1676 11.1348 14.3873 11.4658 14.6862 11.6885C14.985 11.9111 15.3746 12.0225 15.8551 12.0225C16.3297 12.0225 16.7135 11.9111 17.0065 11.6885C17.3053 11.4658 17.5221 11.1348 17.6569 10.6953C17.7975 10.2559 17.8678 9.71387 17.8678 9.06934C17.8678 8.41895 17.7975 7.87988 17.6569 7.45215C17.5221 7.01855 17.3053 6.69336 17.0065 6.47656C16.7077 6.25977 16.318 6.15137 15.8375 6.15137C15.1286 6.15137 14.6129 6.39453 14.2907 6.88086C13.9743 7.36719 13.8161 8.09668 13.8161 9.06934ZM25.8655 0.324219V3.11035C25.8655 3.59668 25.8479 4.05957 25.8128 4.49902C25.7835 4.93848 25.76 5.24902 25.7425 5.43066H25.8831C26.094 5.09082 26.343 4.81543 26.6302 4.60449C26.9231 4.39355 27.2454 4.23828 27.597 4.13867C27.9485 4.03906 28.3264 3.98926 28.7307 3.98926C29.4397 3.98926 30.0579 4.11523 30.5852 4.36719C31.1126 4.61328 31.5227 5.00293 31.8157 5.53613C32.1087 6.06348 32.2552 6.74902 32.2552 7.59277V14H29.5745V8.26074C29.5745 7.55762 29.4456 7.02734 29.1878 6.66992C28.93 6.3125 28.5315 6.13379 27.9925 6.13379C27.4534 6.13379 27.0286 6.25977 26.718 6.51172C26.4075 6.75781 26.1878 7.12402 26.0589 7.61035C25.93 8.09082 25.8655 8.67969 25.8655 9.37695V14H23.1848V0.324219H25.8655ZM39.4267 3.98926C40.3349 3.98926 41.1171 4.16504 41.7734 4.5166C42.4296 4.8623 42.9364 5.36621 43.2939 6.02832C43.6513 6.69043 43.83 7.49902 43.83 8.4541V9.75488H37.4931C37.5224 10.5107 37.748 11.1055 38.1698 11.5391C38.5976 11.9668 39.1894 12.1807 39.9452 12.1807C40.5722 12.1807 41.1464 12.1162 41.6679 11.9873C42.1894 11.8584 42.7255 11.665 43.2763 11.4072V13.4814C42.79 13.7217 42.2802 13.8975 41.747 14.0088C41.2197 14.1201 40.578 14.1758 39.8222 14.1758C38.8378 14.1758 37.9648 13.9941 37.203 13.6309C36.4472 13.2676 35.8525 12.7139 35.4189 11.9697C34.9911 11.2256 34.7773 10.2881 34.7773 9.15723C34.7773 8.00879 34.9706 7.05371 35.3573 6.29199C35.7499 5.52441 36.2948 4.9502 36.9921 4.56934C37.6894 4.18262 38.5009 3.98926 39.4267 3.98926ZM39.4443 5.89648C38.9228 5.89648 38.4892 6.06348 38.1435 6.39746C37.8036 6.73145 37.6073 7.25586 37.5546 7.9707H41.3163C41.3105 7.57227 41.2372 7.21777 41.0966 6.90723C40.9618 6.59668 40.7568 6.35059 40.4814 6.16895C40.2118 5.9873 39.8661 5.89648 39.4443 5.89648ZM50.4214 3.98926C51.3296 3.98926 52.1119 4.16504 52.7681 4.5166C53.4244 4.8623 53.9312 5.36621 54.2886 6.02832C54.6461 6.69043 54.8248 7.49902 54.8248 8.4541V9.75488H48.4879C48.5171 10.5107 48.7427 11.1055 49.1646 11.5391C49.5923 11.9668 50.1841 12.1807 50.94 12.1807C51.567 12.1807 52.1412 12.1162 52.6627 11.9873C53.1841 11.8584 53.7203 11.665 54.2711 11.4072V13.4814C53.7847 13.7217 53.275 13.8975 52.7418 14.0088C52.2144 14.1201 51.5728 14.1758 50.817 14.1758C49.8326 14.1758 48.9595 13.9941 48.1978 13.6309C47.442 13.2676 46.8472 12.7139 46.4136 11.9697C45.9859 11.2256 45.772 10.2881 45.772 9.15723C45.772 8.00879 45.9654 7.05371 46.3521 6.29199C46.7447 5.52441 47.2896 4.9502 47.9869 4.56934C48.6841 4.18262 49.4957 3.98926 50.4214 3.98926ZM50.439 5.89648C49.9175 5.89648 49.4839 6.06348 49.1382 6.39746C48.7984 6.73145 48.6021 7.25586 48.5494 7.9707H52.3111C52.3052 7.57227 52.232 7.21777 52.0914 6.90723C51.9566 6.59668 51.7515 6.35059 51.4761 6.16895C51.2066 5.9873 50.8609 5.89648 50.439 5.89648ZM72.9471 14H69.8534L66.4871 8.58594L65.3358 9.41211V14H62.6112V1.15039H65.3358V7.03027C65.5174 6.77832 65.6961 6.52637 65.8719 6.27441C66.0477 6.02246 66.2264 5.77051 66.408 5.51855L69.8885 1.15039H72.912L68.4295 6.83691L72.9471 14ZM77.394 4.17383V14H74.7134V4.17383H77.394ZM76.0581 0.324219C76.4565 0.324219 76.7993 0.417969 77.0864 0.605469C77.3735 0.787109 77.5171 1.12988 77.5171 1.63379C77.5171 2.13184 77.3735 2.47754 77.0864 2.6709C76.7993 2.8584 76.4565 2.95215 76.0581 2.95215C75.6538 2.95215 75.3081 2.8584 75.021 2.6709C74.7397 2.47754 74.5991 2.13184 74.5991 1.63379C74.5991 1.12988 74.7397 0.787109 75.021 0.605469C75.3081 0.417969 75.6538 0.324219 76.0581 0.324219ZM92.1153 3.98926C93.2286 3.98926 94.0695 4.27637 94.6378 4.85059C95.212 5.41895 95.4991 6.33301 95.4991 7.59277V14H92.8097V8.26074C92.8097 7.55762 92.6896 7.02734 92.4493 6.66992C92.2091 6.3125 91.837 6.13379 91.3331 6.13379C90.6241 6.13379 90.1202 6.38867 89.8214 6.89844C89.5226 7.40234 89.3732 8.12598 89.3732 9.06934V14H86.6925V8.26074C86.6925 7.79199 86.6398 7.39941 86.5343 7.08301C86.4288 6.7666 86.2677 6.5293 86.0509 6.37109C85.8341 6.21289 85.5558 6.13379 85.2159 6.13379C84.7179 6.13379 84.3253 6.25977 84.0382 6.51172C83.757 6.75781 83.5548 7.12402 83.4318 7.61035C83.3146 8.09082 83.256 8.67969 83.256 9.37695V14H80.5753V4.17383H82.6232L82.9835 5.43066H83.1329C83.3321 5.09082 83.5812 4.81543 83.88 4.60449C84.1847 4.39355 84.5187 4.23828 84.882 4.13867C85.2452 4.03906 85.6144 3.98926 85.9894 3.98926C86.7101 3.98926 87.3195 4.10645 87.8175 4.34082C88.3214 4.5752 88.7081 4.93848 88.9777 5.43066H89.215C89.5079 4.92676 89.921 4.56055 90.4542 4.33203C90.9933 4.10352 91.547 3.98926 92.1153 3.98926Z" fill="#F15239"/>
</svg>
