<svg width="99" height="91" viewBox="0 0 99 91" fill="none" xmlns="http://www.w3.org/2000/svg">
<path d="M8.17969 13.8281C8.17969 14.8594 7.80729 15.6719 7.0625 16.2656C6.32292 16.8594 5.29167 17.1562 3.96875 17.1562C2.75 17.1562 1.67188 16.9271 0.734375 16.4688V14.2188C1.50521 14.5625 2.15625 14.8047 2.6875 14.9453C3.22396 15.0859 3.71354 15.1562 4.15625 15.1562C4.6875 15.1562 5.09375 15.0547 5.375 14.8516C5.66146 14.6484 5.80469 14.3464 5.80469 13.9453C5.80469 13.7214 5.74219 13.5234 5.61719 13.3516C5.49219 13.1745 5.30729 13.0052 5.0625 12.8438C4.82292 12.6823 4.33073 12.4245 3.58594 12.0703C2.88802 11.7422 2.36458 11.4271 2.01562 11.125C1.66667 10.8229 1.38802 10.4714 1.17969 10.0703C0.971354 9.66927 0.867188 9.20052 0.867188 8.66406C0.867188 7.65365 1.20833 6.85938 1.89062 6.28125C2.57812 5.70312 3.52604 5.41406 4.73438 5.41406C5.32812 5.41406 5.89323 5.48438 6.42969 5.625C6.97135 5.76562 7.53646 5.96354 8.125 6.21875L7.34375 8.10156C6.73438 7.85156 6.22917 7.67708 5.82812 7.57812C5.43229 7.47917 5.04167 7.42969 4.65625 7.42969C4.19792 7.42969 3.84635 7.53646 3.60156 7.75C3.35677 7.96354 3.23438 8.24219 3.23438 8.58594C3.23438 8.79948 3.28385 8.98698 3.38281 9.14844C3.48177 9.30469 3.63802 9.45833 3.85156 9.60938C4.07031 9.75521 4.58333 10.0208 5.39062 10.4062C6.45833 10.9167 7.1901 11.4297 7.58594 11.9453C7.98177 12.4557 8.17969 13.0833 8.17969 13.8281ZM30.2188 17H29.4141V11.3828H22.7422V17H21.9453V5.57812H22.7422V10.6484H29.4141V5.57812H30.2188V17ZM51.2188 17H44.9766V5.57812H51.2188V6.3125H45.7734V10.6328H50.9141V11.3672H45.7734V16.2656H51.2188V17ZM65.3203 17V5.57812H66.1172V17H65.3203Z" fill="#F15239"/>
<path d="M20.1172 28.2734C20.1172 30.1641 19.6484 31.6172 18.7109 32.6328C17.7734 33.6484 16.4297 34.1562 14.6797 34.1562C12.9297 34.1562 11.5859 33.6484 10.6484 32.6328C9.71094 31.6172 9.24219 30.1589 9.24219 28.2578C9.24219 26.3568 9.71094 24.9062 10.6484 23.9062C11.5911 22.901 12.9401 22.3984 14.6953 22.3984C16.4505 22.3984 17.7917 22.9036 18.7188 23.9141C19.651 24.9245 20.1172 26.3776 20.1172 28.2734ZM11.7812 28.2734C11.7812 29.5495 12.0234 30.5104 12.5078 31.1562C12.9922 31.8021 13.7161 32.125 14.6797 32.125C16.612 32.125 17.5781 30.8411 17.5781 28.2734C17.5781 25.7005 16.6172 24.4141 14.6953 24.4141C13.7318 24.4141 13.0052 24.7396 12.5156 25.3906C12.026 26.0365 11.7812 26.9974 11.7812 28.2734ZM40.4219 34H34.1797V22.5781H40.4219V23.3125H34.9766V27.6328H40.1172V28.3672H34.9766V33.2656H40.4219V34ZM63.5312 34H60.7812L57.7891 29.1875L56.7656 29.9219V34H54.3438V22.5781H56.7656V27.8047L57.7188 26.4609L60.8125 22.5781H63.5L59.5156 27.6328L63.5312 34ZM81.6875 34L77.4297 23.4531H77.3672C77.4089 24.099 77.4297 24.7604 77.4297 25.4375V34H76.6641V22.5781H77.8984L81.9453 32.625H81.9922L86.0391 22.5781H87.2422V34H86.4375V25.3438C86.4375 24.7396 86.4688 24.1146 86.5312 23.4688H86.4688L82.1953 34H81.6875Z" fill="#F15239"/>
<path d="M7.92188 48.0547C7.92188 49.0078 7.57031 49.763 6.86719 50.3203C6.16927 50.8776 5.23958 51.1562 4.07812 51.1562C2.68229 51.1562 1.61198 51.0026 0.867188 50.6953V49.8984C1.6901 50.2474 2.73958 50.4219 4.01562 50.4219C4.95312 50.4219 5.69531 50.2083 6.24219 49.7812C6.79427 49.349 7.07031 48.7839 7.07031 48.0859C7.07031 47.6536 6.97917 47.2969 6.79688 47.0156C6.61458 46.7292 6.31771 46.4688 5.90625 46.2344C5.49479 46 4.89062 45.7474 4.09375 45.4766C2.92708 45.0755 2.11979 44.6432 1.67188 44.1797C1.22917 43.7109 1.00781 43.0885 1.00781 42.3125C1.00781 41.4583 1.34115 40.763 2.00781 40.2266C2.67969 39.6849 3.54167 39.4141 4.59375 39.4141C5.66667 39.4141 6.67448 39.6172 7.61719 40.0234L7.32812 40.7109C6.38021 40.3151 5.47396 40.1172 4.60938 40.1172C3.76562 40.1172 3.09375 40.3125 2.59375 40.7031C2.09375 41.0938 1.84375 41.625 1.84375 42.2969C1.84375 42.7188 1.91927 43.0651 2.07031 43.3359C2.22656 43.6068 2.47917 43.8516 2.82812 44.0703C3.17708 44.2839 3.77604 44.5417 4.625 44.8438C5.51562 45.151 6.1849 45.4505 6.63281 45.7422C7.08073 46.0286 7.40625 46.3568 7.60938 46.7266C7.81771 47.0911 7.92188 47.5339 7.92188 48.0547ZM31.0312 51H28.6172V46.0703H24.0938V51H21.6719V39.5781H24.0938V44.0547H28.6172V39.5781H31.0312V51ZM51.8594 51H45.6172V39.5781H51.8594V40.3125H46.4141V44.6328H51.5547V45.3672H46.4141V50.2656H51.8594V51ZM69.9375 51V39.5781H72.3594V51H69.9375Z" fill="#F15239"/>
<path d="M22.7344 63.2734C22.7344 65.0859 22.2812 66.5208 21.375 67.5781C20.4688 68.6302 19.2188 69.1562 17.625 69.1562C16.0365 69.1562 14.7891 68.6302 13.8828 67.5781C12.9766 66.5208 12.5234 65.0807 12.5234 63.2578C12.5234 61.4401 12.9792 60.0104 13.8906 58.9688C14.8073 57.9219 16.0573 57.3984 17.6406 57.3984C19.2344 57.3984 20.4818 57.9245 21.3828 58.9766C22.2839 60.0234 22.7344 61.4557 22.7344 63.2734ZM13.3906 63.2734C13.3906 64.9089 13.7552 66.1745 14.4844 67.0703C15.2135 67.9609 16.2604 68.4062 17.625 68.4062C19 68.4062 20.0495 67.9635 20.7734 67.0781C21.5026 66.1927 21.8672 64.9245 21.8672 63.2734C21.8672 61.6276 21.5026 60.3672 20.7734 59.4922C20.0495 58.612 19.0052 58.1719 17.6406 58.1719C16.2812 58.1719 15.2318 58.6146 14.4922 59.5C13.7578 60.3854 13.3906 61.6432 13.3906 63.2734ZM43.2812 69H36.7031V57.5781H43.2812V59.5625H39.125V62.0703H42.9922V64.0547H39.125V67H43.2812V69ZM65.0469 69H64.0703L59.6875 62.9688L58.1641 64.3125V69H57.3672V57.5781H58.1641V63.5156L59.4297 62.25L63.9062 57.5781H64.9219L60.2422 62.4062L65.0469 69ZM82.8359 69L80.0859 60.0391H80.0156C80.1146 61.862 80.1641 63.0781 80.1641 63.6875V69H78V57.5781H81.2969L84 66.3125H84.0469L86.9141 57.5781H90.2109V69H87.9531V63.5938C87.9531 63.3385 87.9557 63.0443 87.9609 62.7109C87.9714 62.3776 88.0078 61.4922 88.0703 60.0547H88L85.0547 69H82.8359Z" fill="#F15239"/>
<path d="M7.92188 85.0547C7.92188 86.0078 7.57031 86.763 6.86719 87.3203C6.16927 87.8776 5.23958 88.1562 4.07812 88.1562C2.68229 88.1562 1.61198 88.0026 0.867188 87.6953V86.8984C1.6901 87.2474 2.73958 87.4219 4.01562 87.4219C4.95312 87.4219 5.69531 87.2083 6.24219 86.7812C6.79427 86.349 7.07031 85.7839 7.07031 85.0859C7.07031 84.6536 6.97917 84.2969 6.79688 84.0156C6.61458 83.7292 6.31771 83.4688 5.90625 83.2344C5.49479 83 4.89062 82.7474 4.09375 82.4766C2.92708 82.0755 2.11979 81.6432 1.67188 81.1797C1.22917 80.7109 1.00781 80.0885 1.00781 79.3125C1.00781 78.4583 1.34115 77.763 2.00781 77.2266C2.67969 76.6849 3.54167 76.4141 4.59375 76.4141C5.66667 76.4141 6.67448 76.6172 7.61719 77.0234L7.32812 77.7109C6.38021 77.3151 5.47396 77.1172 4.60938 77.1172C3.76562 77.1172 3.09375 77.3125 2.59375 77.7031C2.09375 78.0938 1.84375 78.625 1.84375 79.2969C1.84375 79.7188 1.91927 80.0651 2.07031 80.3359C2.22656 80.6068 2.47917 80.8516 2.82812 81.0703C3.17708 81.2839 3.77604 81.5417 4.625 81.8438C5.51562 82.151 6.1849 82.4505 6.63281 82.7422C7.08073 83.0286 7.40625 83.3568 7.60938 83.7266C7.81771 84.0911 7.92188 84.5339 7.92188 85.0547ZM30.125 88H29.3203V82.3828H22.6484V88H21.8516V76.5781H22.6484V81.6484H29.3203V76.5781H30.125V88ZM51.2812 88H44.7031V76.5781H51.2812V78.5625H47.125V81.0703H50.9922V83.0547H47.125V86H51.2812V88ZM65.3672 88V76.5781H66.1641V88H65.3672Z" fill="#F15239"/>
</svg>
