<svg width="336" height="286" viewBox="0 0 336 286" fill="none" xmlns="http://www.w3.org/2000/svg">
<path d="M187.548 15.3076H188.693C189.764 15.3076 190.565 15.098 191.097 14.6787C191.628 14.252 191.894 13.6343 191.894 12.8257C191.894 12.0096 191.669 11.4069 191.22 11.0176C190.778 10.6283 190.082 10.4336 189.131 10.4336H187.548V15.3076ZM195.409 12.7021C195.409 14.4691 194.855 15.8205 193.747 16.7563C192.646 17.6922 191.078 18.1602 189.042 18.1602H187.548V24H184.066V7.58105H189.311C191.303 7.58105 192.815 8.01156 193.848 8.87256C194.889 9.72607 195.409 11.0026 195.409 12.7021ZM216.466 16.8462V24H215.321V7.58105H219.229C221.265 7.58105 222.77 7.95915 223.744 8.71533C224.717 9.46403 225.204 10.5946 225.204 12.1069C225.204 13.2075 224.912 14.1359 224.328 14.8921C223.751 15.6483 222.871 16.1911 221.688 16.5205L226.147 24H224.777L220.543 16.8462H216.466ZM216.466 15.8579H219.6C220.985 15.8579 222.059 15.5509 222.823 14.937C223.586 14.3156 223.968 13.4022 223.968 12.1968C223.968 10.9465 223.594 10.0368 222.845 9.46777C222.097 8.89876 220.876 8.61426 219.184 8.61426H216.466V15.8579ZM246.699 24H245.553V7.58105H254.549V8.63672H246.699V15.5996H254.111V16.6665H246.699V24ZM273.652 24V7.58105H274.797V22.9219H282.625V24H273.652ZM315.822 15.7681C315.822 18.3735 315.171 20.4362 313.868 21.9561C312.565 23.4684 310.769 24.2246 308.478 24.2246C306.194 24.2246 304.401 23.4684 303.098 21.9561C301.795 20.4362 301.144 18.366 301.144 15.7456C301.144 13.1326 301.799 11.0775 303.109 9.58008C304.427 8.0752 306.224 7.32275 308.5 7.32275C310.791 7.32275 312.584 8.07894 313.879 9.59131C315.175 11.0962 315.822 13.1551 315.822 15.7681ZM302.391 15.7681C302.391 18.119 302.915 19.9383 303.963 21.2261C305.011 22.5063 306.516 23.1465 308.478 23.1465C310.454 23.1465 311.963 22.5101 313.003 21.2373C314.052 19.9645 314.576 18.1414 314.576 15.7681C314.576 13.4022 314.052 11.5903 313.003 10.3325C311.963 9.06722 310.462 8.43457 308.5 8.43457C306.546 8.43457 305.037 9.07096 303.974 10.3438C302.918 11.6165 302.391 13.4246 302.391 15.7681ZM215.523 46.7681C215.523 49.4858 214.849 51.5747 213.501 53.0347C212.154 54.4946 210.222 55.2246 207.707 55.2246C205.191 55.2246 203.259 54.4946 201.912 53.0347C200.564 51.5747 199.89 49.4784 199.89 46.7456C199.89 44.0129 200.564 41.9277 201.912 40.4902C203.267 39.0452 205.206 38.3228 207.729 38.3228C210.252 38.3228 212.18 39.049 213.513 40.5015C214.853 41.9539 215.523 44.0428 215.523 46.7681ZM203.54 46.7681C203.54 48.6024 203.888 49.9837 204.584 50.9121C205.281 51.8405 206.321 52.3047 207.707 52.3047C210.484 52.3047 211.873 50.4591 211.873 46.7681C211.873 43.0695 210.492 41.2202 207.729 41.2202C206.344 41.2202 205.299 41.6882 204.596 42.624C203.892 43.5524 203.54 44.9338 203.54 46.7681ZM240.017 55H238.86V39.6592H233.525V38.5811H245.351V39.6592H240.017V55ZM278.155 46.7681C278.155 49.3735 277.504 51.4362 276.201 52.9561C274.898 54.4684 273.102 55.2246 270.811 55.2246C268.527 55.2246 266.734 54.4684 265.431 52.9561C264.128 51.4362 263.477 49.366 263.477 46.7456C263.477 44.1326 264.132 42.0775 265.442 40.5801C266.76 39.0752 268.557 38.3228 270.833 38.3228C273.124 38.3228 274.917 39.0789 276.212 40.5913C277.508 42.0962 278.155 44.1551 278.155 46.7681ZM264.724 46.7681C264.724 49.119 265.248 50.9383 266.296 52.2261C267.344 53.5063 268.849 54.1465 270.811 54.1465C272.787 54.1465 274.296 53.5101 275.336 52.2373C276.385 50.9645 276.909 49.1414 276.909 46.7681C276.909 44.4022 276.385 42.5903 275.336 41.3325C274.296 40.0672 272.795 39.4346 270.833 39.4346C268.879 39.4346 267.37 40.071 266.307 41.3438C265.251 42.6165 264.724 44.4246 264.724 46.7681ZM298.494 55V38.5811H299.639V55H298.494Z" fill="#F15239"/>
<path d="M193.208 77.2979C193.208 78.8851 192.668 80.1017 191.59 80.9478C190.512 81.7938 188.985 82.2168 187.008 82.2168H184.47V89H183.325V72.5811H187.345C191.253 72.5811 193.208 74.1533 193.208 77.2979ZM184.47 81.2285H186.728C188.577 81.2285 189.913 80.9253 190.737 80.3188C191.56 79.7049 191.972 78.7129 191.972 77.3428C191.972 76.0775 191.583 75.1416 190.804 74.5352C190.026 73.9212 188.82 73.6143 187.188 73.6143H184.47V81.2285ZM216.556 79.8696H217.679C218.779 79.8696 219.592 79.6862 220.116 79.3193C220.64 78.9525 220.902 78.376 220.902 77.5898C220.902 76.8112 220.632 76.2572 220.093 75.9277C219.562 75.5983 218.734 75.4336 217.611 75.4336H216.556V79.8696ZM216.556 82.6997V89H213.074V72.5811H217.858C220.09 72.5811 221.74 72.9891 222.811 73.8052C223.882 74.6138 224.417 75.8454 224.417 77.5C224.417 78.4658 224.151 79.3268 223.62 80.083C223.088 80.8317 222.336 81.4194 221.362 81.8462C223.833 85.5373 225.443 87.9219 226.191 89H222.328L218.409 82.6997H216.556ZM246.215 89H245.07V72.5811H254.065V73.6367H246.215V80.5996H253.627V81.6665H246.215V89ZM273.168 89V72.5811H274.314V87.9219H282.142V89H273.168ZM315.339 80.7681C315.339 83.3735 314.688 85.4362 313.385 86.9561C312.082 88.4684 310.285 89.2246 307.994 89.2246C305.711 89.2246 303.917 88.4684 302.615 86.9561C301.312 85.4362 300.661 83.366 300.661 80.7456C300.661 78.1326 301.316 76.0775 302.626 74.5801C303.944 73.0752 305.741 72.3228 308.017 72.3228C310.308 72.3228 312.101 73.0789 313.396 74.5913C314.691 76.0962 315.339 78.1551 315.339 80.7681ZM301.907 80.7681C301.907 83.119 302.431 84.9383 303.479 86.2261C304.528 87.5063 306.033 88.1465 307.994 88.1465C309.971 88.1465 311.479 87.5101 312.52 86.2373C313.568 84.9645 314.092 83.1414 314.092 80.7681C314.092 78.4022 313.568 76.5903 312.52 75.3325C311.479 74.0672 309.978 73.4346 308.017 73.4346C306.062 73.4346 304.554 74.071 303.491 75.3438C302.435 76.6165 301.907 78.4246 301.907 80.7681ZM213.681 111.768C213.681 114.374 213.029 116.436 211.727 117.956C210.424 119.468 208.627 120.225 206.336 120.225C204.052 120.225 202.259 119.468 200.957 117.956C199.654 116.436 199.002 114.366 199.002 111.746C199.002 109.133 199.658 107.077 200.968 105.58C202.285 104.075 204.082 103.323 206.358 103.323C208.649 103.323 210.443 104.079 211.738 105.591C213.033 107.096 213.681 109.155 213.681 111.768ZM200.249 111.768C200.249 114.119 200.773 115.938 201.821 117.226C202.869 118.506 204.374 119.146 206.336 119.146C208.312 119.146 209.821 118.51 210.862 117.237C211.91 115.965 212.434 114.141 212.434 111.768C212.434 109.402 211.91 107.59 210.862 106.333C209.821 105.067 208.32 104.435 206.358 104.435C204.404 104.435 202.896 105.071 201.833 106.344C200.777 107.617 200.249 109.425 200.249 111.768ZM240.095 120H236.613V106.479H232.155V103.581H244.553V106.479H240.095V120ZM277.694 111.768C277.694 114.374 277.043 116.436 275.74 117.956C274.438 119.468 272.641 120.225 270.35 120.225C268.066 120.225 266.273 119.468 264.97 117.956C263.667 116.436 263.016 114.366 263.016 111.746C263.016 109.133 263.671 107.077 264.981 105.58C266.299 104.075 268.096 103.323 270.372 103.323C272.663 103.323 274.456 104.079 275.751 105.591C277.047 107.096 277.694 109.155 277.694 111.768ZM264.263 111.768C264.263 114.119 264.787 115.938 265.835 117.226C266.883 118.506 268.388 119.146 270.35 119.146C272.326 119.146 273.835 118.51 274.875 117.237C275.924 115.965 276.448 114.141 276.448 111.768C276.448 109.402 275.924 107.59 274.875 106.333C273.835 105.067 272.334 104.435 270.372 104.435C268.418 104.435 266.909 105.071 265.846 106.344C264.791 107.617 264.263 109.425 264.263 111.768ZM298.033 120V103.581H299.178V120H298.033Z" fill="#F15239"/>
<path d="M194.208 141.298C194.208 142.885 193.668 144.102 192.59 144.948C191.512 145.794 189.985 146.217 188.008 146.217H185.47V153H184.325V136.581H188.345C192.253 136.581 194.208 138.153 194.208 141.298ZM185.47 145.229H187.728C189.577 145.229 190.913 144.925 191.737 144.319C192.56 143.705 192.972 142.713 192.972 141.343C192.972 140.077 192.583 139.142 191.804 138.535C191.026 137.921 189.82 137.614 188.188 137.614H185.47V145.229ZM215.478 145.846V153H214.333V136.581H218.241C220.277 136.581 221.782 136.959 222.755 137.715C223.729 138.464 224.215 139.595 224.215 141.107C224.215 142.208 223.923 143.136 223.339 143.892C222.763 144.648 221.883 145.191 220.7 145.521L225.159 153H223.789L219.555 145.846H215.478ZM215.478 144.858H218.611C219.996 144.858 221.071 144.551 221.834 143.937C222.598 143.316 222.98 142.402 222.98 141.197C222.98 139.946 222.606 139.037 221.857 138.468C221.108 137.899 219.888 137.614 218.196 137.614H215.478V144.858ZM247.732 153H244.307V136.581H253.718V139.434H247.732V143.667H253.302V146.509H247.732V153ZM273.742 153V136.581H274.887V151.922H282.715V153H273.742ZM315.912 144.768C315.912 147.374 315.261 149.436 313.958 150.956C312.655 152.468 310.858 153.225 308.567 153.225C306.284 153.225 304.491 152.468 303.188 150.956C301.885 149.436 301.234 147.366 301.234 144.746C301.234 142.133 301.889 140.077 303.199 138.58C304.517 137.075 306.314 136.323 308.59 136.323C310.881 136.323 312.674 137.079 313.969 138.591C315.264 140.096 315.912 142.155 315.912 144.768ZM302.48 144.768C302.48 147.119 303.005 148.938 304.053 150.226C305.101 151.506 306.606 152.146 308.567 152.146C310.544 152.146 312.053 151.51 313.093 150.237C314.141 148.965 314.666 147.141 314.666 144.768C314.666 142.402 314.141 140.59 313.093 139.333C312.053 138.067 310.551 137.435 308.59 137.435C306.636 137.435 305.127 138.071 304.064 139.344C303.008 140.617 302.48 142.425 302.48 144.768ZM214.681 175.768C214.681 178.374 214.029 180.436 212.727 181.956C211.424 183.468 209.627 184.225 207.336 184.225C205.052 184.225 203.259 183.468 201.957 181.956C200.654 180.436 200.002 178.366 200.002 175.746C200.002 173.133 200.658 171.077 201.968 169.58C203.285 168.075 205.082 167.323 207.358 167.323C209.649 167.323 211.443 168.079 212.738 169.591C214.033 171.096 214.681 173.155 214.681 175.768ZM201.249 175.768C201.249 178.119 201.773 179.938 202.821 181.226C203.869 182.506 205.374 183.146 207.336 183.146C209.312 183.146 210.821 182.51 211.862 181.237C212.91 179.965 213.434 178.141 213.434 175.768C213.434 173.402 212.91 171.59 211.862 170.333C210.821 169.067 209.32 168.435 207.358 168.435C205.404 168.435 203.896 169.071 202.833 170.344C201.777 171.617 201.249 173.425 201.249 175.768ZM239.298 184H238.141V168.659H232.807V167.581H244.632V168.659H239.298V184ZM278.279 175.768C278.279 178.486 277.605 180.575 276.257 182.035C274.91 183.495 272.978 184.225 270.462 184.225C267.947 184.225 266.015 183.495 264.667 182.035C263.32 180.575 262.646 178.478 262.646 175.746C262.646 173.013 263.32 170.928 264.667 169.49C266.023 168.045 267.962 167.323 270.485 167.323C273.008 167.323 274.936 168.049 276.269 169.501C277.609 170.954 278.279 173.043 278.279 175.768ZM266.296 175.768C266.296 177.602 266.644 178.984 267.34 179.912C268.037 180.84 269.077 181.305 270.462 181.305C273.24 181.305 274.629 179.459 274.629 175.768C274.629 172.069 273.248 170.22 270.485 170.22C269.1 170.22 268.055 170.688 267.352 171.624C266.648 172.552 266.296 173.934 266.296 175.768ZM298.494 184V167.581H299.639V184H298.494Z" fill="#F15239"/>
<path d="M194.208 205.298C194.208 206.885 193.668 208.102 192.59 208.948C191.512 209.794 189.985 210.217 188.008 210.217H185.47V217H184.325V200.581H188.345C192.253 200.581 194.208 202.153 194.208 205.298ZM185.47 209.229H187.728C189.577 209.229 190.913 208.925 191.737 208.319C192.56 207.705 192.972 206.713 192.972 205.343C192.972 204.077 192.583 203.142 191.804 202.535C191.026 201.921 189.82 201.614 188.188 201.614H185.47V209.229ZM215.478 209.846V217H214.333V200.581H218.241C220.277 200.581 221.782 200.959 222.755 201.715C223.729 202.464 224.215 203.595 224.215 205.107C224.215 206.208 223.923 207.136 223.339 207.892C222.763 208.648 221.883 209.191 220.7 209.521L225.159 217H223.789L219.555 209.846H215.478ZM215.478 208.858H218.611C219.996 208.858 221.071 208.551 221.834 207.937C222.598 207.316 222.98 206.402 222.98 205.197C222.98 203.946 222.606 203.037 221.857 202.468C221.108 201.899 219.888 201.614 218.196 201.614H215.478V208.858ZM245.71 217H244.565V200.581H253.561V201.637H245.71V208.6H253.123V209.667H245.71V217ZM280.01 217V200.581H283.491V214.125H290.151V217H280.01ZM323.629 208.768C323.629 211.374 322.978 213.436 321.675 214.956C320.372 216.468 318.575 217.225 316.284 217.225C314.001 217.225 312.208 216.468 310.905 214.956C309.602 213.436 308.951 211.366 308.951 208.746C308.951 206.133 309.606 204.077 310.916 202.58C312.234 201.075 314.031 200.323 316.307 200.323C318.598 200.323 320.391 201.079 321.686 202.591C322.981 204.096 323.629 206.155 323.629 208.768ZM310.197 208.768C310.197 211.119 310.721 212.938 311.77 214.226C312.818 215.506 314.323 216.146 316.284 216.146C318.261 216.146 319.769 215.51 320.81 214.237C321.858 212.965 322.382 211.141 322.382 208.768C322.382 206.402 321.858 204.59 320.81 203.333C319.769 202.067 318.268 201.435 316.307 201.435C314.353 201.435 312.844 202.071 311.781 203.344C310.725 204.617 310.197 206.425 310.197 208.768ZM214.681 239.768C214.681 242.374 214.029 244.436 212.727 245.956C211.424 247.468 209.627 248.225 207.336 248.225C205.052 248.225 203.259 247.468 201.957 245.956C200.654 244.436 200.002 242.366 200.002 239.746C200.002 237.133 200.658 235.077 201.968 233.58C203.285 232.075 205.082 231.323 207.358 231.323C209.649 231.323 211.443 232.079 212.738 233.591C214.033 235.096 214.681 237.155 214.681 239.768ZM201.249 239.768C201.249 242.119 201.773 243.938 202.821 245.226C203.869 246.506 205.374 247.146 207.336 247.146C209.312 247.146 210.821 246.51 211.862 245.237C212.91 243.965 213.434 242.141 213.434 239.768C213.434 237.402 212.91 235.59 211.862 234.333C210.821 233.067 209.32 232.435 207.358 232.435C205.404 232.435 203.896 233.071 202.833 234.344C201.777 235.617 201.249 237.425 201.249 239.768ZM239.298 248H238.141V232.659H232.807V231.581H244.632V232.659H239.298V248ZM277.437 239.768C277.437 242.374 276.785 244.436 275.482 245.956C274.18 247.468 272.383 248.225 270.092 248.225C267.808 248.225 266.015 247.468 264.712 245.956C263.41 244.436 262.758 242.366 262.758 239.746C262.758 237.133 263.413 235.077 264.724 233.58C266.041 232.075 267.838 231.323 270.114 231.323C272.405 231.323 274.198 232.079 275.494 233.591C276.789 235.096 277.437 237.155 277.437 239.768ZM264.005 239.768C264.005 242.119 264.529 243.938 265.577 245.226C266.625 246.506 268.13 247.146 270.092 247.146C272.068 247.146 273.577 246.51 274.618 245.237C275.666 243.965 276.19 242.141 276.19 239.768C276.19 237.402 275.666 235.59 274.618 234.333C273.577 233.067 272.076 232.435 270.114 232.435C268.16 232.435 266.652 233.071 265.588 234.344C264.533 235.617 264.005 237.425 264.005 239.768ZM297.517 248V231.581H300.998V248H297.517Z" fill="#F15239"/>
<path d="M194.208 268.298C194.208 269.885 193.668 271.102 192.59 271.948C191.512 272.794 189.985 273.217 188.008 273.217H185.47V280H184.325V263.581H188.345C192.253 263.581 194.208 265.153 194.208 268.298ZM185.47 272.229H187.728C189.577 272.229 190.913 271.925 191.737 271.319C192.56 270.705 192.972 269.713 192.972 268.343C192.972 267.077 192.583 266.142 191.804 265.535C191.026 264.921 189.82 264.614 188.188 264.614H185.47V272.229ZM215.478 272.846V280H214.333V263.581H218.241C220.277 263.581 221.782 263.959 222.755 264.715C223.729 265.464 224.215 266.595 224.215 268.107C224.215 269.208 223.923 270.136 223.339 270.892C222.763 271.648 221.883 272.191 220.7 272.521L225.159 280H223.789L219.555 272.846H215.478ZM215.478 271.858H218.611C219.996 271.858 221.071 271.551 221.834 270.937C222.598 270.316 222.98 269.402 222.98 268.197C222.98 266.946 222.606 266.037 221.857 265.468C221.108 264.899 219.888 264.614 218.196 264.614H215.478V271.858ZM245.71 280H244.565V263.581H253.561V264.637H245.71V271.6H253.123V272.667H245.71V280ZM272.664 280V263.581H273.809V278.922H281.637V280H272.664ZM315.676 271.768C315.676 274.486 315.002 276.575 313.655 278.035C312.307 279.495 310.375 280.225 307.86 280.225C305.344 280.225 303.413 279.495 302.065 278.035C300.717 276.575 300.043 274.478 300.043 271.746C300.043 269.013 300.717 266.928 302.065 265.49C303.42 264.045 305.359 263.323 307.882 263.323C310.405 263.323 312.333 264.049 313.666 265.501C315.006 266.954 315.676 269.043 315.676 271.768ZM303.693 271.768C303.693 273.602 304.042 274.984 304.738 275.912C305.434 276.84 306.475 277.305 307.86 277.305C310.638 277.305 312.026 275.459 312.026 271.768C312.026 268.069 310.645 266.22 307.882 266.22C306.497 266.22 305.453 266.688 304.749 267.624C304.045 268.552 303.693 269.934 303.693 271.768Z" fill="#F15239"/>
<path d="M11.7583 19.4404C11.7583 20.9229 11.223 22.0908 10.1523 22.9443C9.08919 23.7979 7.60677 24.2246 5.70508 24.2246C3.95312 24.2246 2.40332 23.8952 1.05566 23.2363V20.002C2.16374 20.4961 3.09961 20.8442 3.86328 21.0464C4.63444 21.2485 5.33822 21.3496 5.97461 21.3496C6.73828 21.3496 7.32227 21.2036 7.72656 20.9116C8.13835 20.6196 8.34424 20.1854 8.34424 19.6089C8.34424 19.2869 8.25439 19.0024 8.07471 18.7554C7.89502 18.5008 7.62923 18.2575 7.27734 18.0254C6.93294 17.7933 6.22542 17.4227 5.15479 16.9136C4.15153 16.4419 3.39909 15.9889 2.89746 15.5547C2.39583 15.1204 1.99528 14.6151 1.6958 14.0386C1.39632 13.4621 1.24658 12.7882 1.24658 12.0171C1.24658 10.5646 1.73698 9.42285 2.71777 8.5918C3.70605 7.76074 5.06868 7.34521 6.80566 7.34521C7.65918 7.34521 8.47152 7.44629 9.24268 7.64844C10.0213 7.85059 10.8337 8.13509 11.6797 8.50195L10.5566 11.2085C9.68066 10.8491 8.95443 10.5983 8.37793 10.4561C7.80892 10.3138 7.2474 10.2427 6.69336 10.2427C6.03451 10.2427 5.52913 10.3962 5.17725 10.7031C4.82536 11.0101 4.64941 11.4106 4.64941 11.9048C4.64941 12.2118 4.72054 12.4813 4.86279 12.7134C5.00505 12.938 5.22965 13.1589 5.53662 13.376C5.85107 13.5856 6.58854 13.9674 7.74902 14.5215C9.28385 15.2552 10.3358 15.9927 10.9048 16.7339C11.4738 17.4676 11.7583 18.3698 11.7583 19.4404ZM43.4395 24H42.2827V15.9253H32.6919V24H31.5464V7.58105H32.6919V14.8696H42.2827V7.58105H43.4395V24ZM73.627 24H64.6538V7.58105H73.627V8.63672H65.7993V14.8472H73.189V15.9028H65.7993V22.9443H73.627V24ZM93.8979 24V7.58105H95.0435V24H93.8979ZM33.5229 46.7681C33.5229 49.4858 32.8491 51.5747 31.5015 53.0347C30.1538 54.4946 28.2222 55.2246 25.7065 55.2246C23.1909 55.2246 21.2593 54.4946 19.9116 53.0347C18.564 51.5747 17.8901 49.4784 17.8901 46.7456C17.8901 44.0129 18.564 41.9277 19.9116 40.4902C21.2668 39.0452 23.2059 38.3228 25.729 38.3228C28.2521 38.3228 30.18 39.049 31.5127 40.5015C32.8529 41.9539 33.5229 44.0428 33.5229 46.7681ZM21.54 46.7681C21.54 48.6024 21.8882 49.9837 22.5845 50.9121C23.2808 51.8405 24.3215 52.3047 25.7065 52.3047C28.4842 52.3047 29.873 50.4591 29.873 46.7681C29.873 43.0695 28.4917 41.2202 25.729 41.2202C24.3439 41.2202 23.2995 41.6882 22.5957 42.624C21.8919 43.5524 21.54 44.9338 21.54 46.7681ZM62.7109 55H53.7378V38.5811H62.7109V39.6367H54.8833V45.8472H62.2729V46.9028H54.8833V53.9443H62.7109V55ZM94.0215 55H92.6177L86.3174 46.3301L84.1274 48.2617V55H82.9819V38.5811H84.1274V47.1162L85.9468 45.2969L92.3818 38.5811H93.8418L87.1147 45.5215L94.0215 55ZM120.121 55L114 39.8389H113.911C113.971 40.7673 114 41.7181 114 42.6914V55H112.9V38.5811H114.674L120.492 53.0234H120.559L126.376 38.5811H128.106V55H126.949V42.5566C126.949 41.6882 126.994 40.7897 127.084 39.8613H126.994L120.851 55H120.121Z" fill="#F15239"/>
<path d="M11.3877 84.7661C11.3877 86.1362 10.8823 87.2218 9.87158 88.0229C8.86833 88.8241 7.5319 89.2246 5.8623 89.2246C3.85579 89.2246 2.31722 89.0037 1.24658 88.562V87.4165C2.42952 87.9181 3.93815 88.1689 5.77246 88.1689C7.12012 88.1689 8.18701 87.862 8.97314 87.248C9.76676 86.6266 10.1636 85.8143 10.1636 84.811C10.1636 84.1896 10.0326 83.6768 9.77051 83.2725C9.50846 82.8607 9.08171 82.4863 8.49023 82.1494C7.89876 81.8125 7.03027 81.4494 5.88477 81.0601C4.20768 80.4836 3.0472 79.8621 2.40332 79.1958C1.76693 78.522 1.44873 77.6273 1.44873 76.5117C1.44873 75.2839 1.9279 74.2843 2.88623 73.5132C3.85205 72.7345 5.09115 72.3452 6.60352 72.3452C8.14583 72.3452 9.59456 72.6372 10.9497 73.2212L10.5342 74.2095C9.17155 73.6405 7.86882 73.356 6.62598 73.356C5.41309 73.356 4.44727 73.6367 3.72852 74.1982C3.00977 74.7598 2.65039 75.5234 2.65039 76.4893C2.65039 77.0957 2.75895 77.5936 2.97607 77.9829C3.20068 78.3722 3.5638 78.7241 4.06543 79.0386C4.56706 79.3455 5.42806 79.7161 6.64844 80.1504C7.92871 80.5921 8.89079 81.0226 9.53467 81.4419C10.1785 81.8537 10.6465 82.3254 10.9385 82.8569C11.238 83.381 11.3877 84.0174 11.3877 84.7661ZM44.6074 89H41.1372V81.9136H34.6348V89H31.1533V72.5811H34.6348V79.0161H41.1372V72.5811H44.6074V89ZM74.5479 89H65.5747V72.5811H74.5479V73.6367H66.7202V79.8472H74.1099V80.9028H66.7202V87.9443H74.5479V89ZM94.8188 89V72.5811H95.9644V89H94.8188ZM32.6807 111.768C32.6807 114.374 32.0293 116.436 30.7266 117.956C29.4238 119.468 27.627 120.225 25.3359 120.225C23.0524 120.225 21.2593 119.468 19.9565 117.956C18.6538 116.436 18.0024 114.366 18.0024 111.746C18.0024 109.133 18.6576 107.077 19.9678 105.58C21.2855 104.075 23.0824 103.323 25.3584 103.323C27.6494 103.323 29.4425 104.079 30.7378 105.591C32.033 107.096 32.6807 109.155 32.6807 111.768ZM19.249 111.768C19.249 114.119 19.7731 115.938 20.8213 117.226C21.8695 118.506 23.3743 119.146 25.3359 119.146C27.3125 119.146 28.8211 118.51 29.8618 117.237C30.91 115.965 31.4341 114.141 31.4341 111.768C31.4341 109.402 30.91 107.59 29.8618 106.333C28.8211 105.067 27.32 104.435 25.3584 104.435C23.4043 104.435 21.8957 105.071 20.8325 106.344C19.7769 107.617 19.249 109.425 19.249 111.768ZM62.2168 120H52.7607V103.581H62.2168V106.434H56.2422V110.039H61.8013V112.891H56.2422V117.125H62.2168V120ZM93.5049 120H92.1011L85.8008 111.33L83.6108 113.262V120H82.4653V103.581H83.6108V112.116L85.4302 110.297L91.8652 103.581H93.3252L86.5981 110.521L93.5049 120ZM119.604 120L113.484 104.839H113.394C113.454 105.767 113.484 106.718 113.484 107.691V120H112.383V103.581H114.158L119.975 118.023H120.042L125.86 103.581H127.589V120H126.433V107.557C126.433 106.688 126.478 105.79 126.567 104.861H126.478L120.334 120H119.604Z" fill="#F15239"/>
<path d="M11.3877 148.766C11.3877 150.136 10.8823 151.222 9.87158 152.023C8.86833 152.824 7.5319 153.225 5.8623 153.225C3.85579 153.225 2.31722 153.004 1.24658 152.562V151.417C2.42952 151.918 3.93815 152.169 5.77246 152.169C7.12012 152.169 8.18701 151.862 8.97314 151.248C9.76676 150.627 10.1636 149.814 10.1636 148.811C10.1636 148.19 10.0326 147.677 9.77051 147.272C9.50846 146.861 9.08171 146.486 8.49023 146.149C7.89876 145.812 7.03027 145.449 5.88477 145.06C4.20768 144.484 3.0472 143.862 2.40332 143.196C1.76693 142.522 1.44873 141.627 1.44873 140.512C1.44873 139.284 1.9279 138.284 2.88623 137.513C3.85205 136.735 5.09115 136.345 6.60352 136.345C8.14583 136.345 9.59456 136.637 10.9497 137.221L10.5342 138.209C9.17155 137.64 7.86882 137.356 6.62598 137.356C5.41309 137.356 4.44727 137.637 3.72852 138.198C3.00977 138.76 2.65039 139.523 2.65039 140.489C2.65039 141.096 2.75895 141.594 2.97607 141.983C3.20068 142.372 3.5638 142.724 4.06543 143.039C4.56706 143.346 5.42806 143.716 6.64844 144.15C7.92871 144.592 8.89079 145.023 9.53467 145.442C10.1785 145.854 10.6465 146.325 10.9385 146.857C11.238 147.381 11.3877 148.017 11.3877 148.766ZM43.3047 153H42.1479V144.925H32.5571V153H31.4116V136.581H32.5571V143.87H42.1479V136.581H43.3047V153ZM73.7168 153H64.2607V136.581H73.7168V139.434H67.7422V143.039H73.3013V145.891H67.7422V150.125H73.7168V153ZM93.9653 153V136.581H95.1108V153H93.9653ZM32.6807 206.768C32.6807 209.374 32.0293 211.436 30.7266 212.956C29.4238 214.468 27.627 215.225 25.3359 215.225C23.0524 215.225 21.2593 214.468 19.9565 212.956C18.6538 211.436 18.0024 209.366 18.0024 206.746C18.0024 204.133 18.6576 202.077 19.9678 200.58C21.2855 199.075 23.0824 198.323 25.3584 198.323C27.6494 198.323 29.4425 199.079 30.7378 200.591C32.033 202.096 32.6807 204.155 32.6807 206.768ZM19.249 206.768C19.249 209.119 19.7731 210.938 20.8213 212.226C21.8695 213.506 23.3743 214.146 25.3359 214.146C27.3125 214.146 28.8211 213.51 29.8618 212.237C30.91 210.965 31.4341 209.141 31.4341 206.768C31.4341 204.402 30.91 202.59 29.8618 201.333C28.8211 200.067 27.32 199.435 25.3584 199.435C23.4043 199.435 21.8957 200.071 20.8325 201.344C19.7769 202.617 19.249 204.425 19.249 206.768ZM61.9922 215H53.019V198.581H61.9922V199.637H54.1646V205.847H61.5542V206.903H54.1646V213.944H61.9922V215ZM95.2119 215H91.2588L86.9575 208.082L85.4863 209.138V215H82.0049V198.581H85.4863V206.094L86.8564 204.163L91.3037 198.581H95.167L89.4395 205.847L95.2119 215ZM121.312 215L115.191 199.839H115.101C115.161 200.767 115.191 201.718 115.191 202.691V215H114.09V198.581H115.865L121.682 213.023H121.75L127.567 198.581H129.296V215H128.14V202.557C128.14 201.688 128.185 200.79 128.274 199.861H128.185L122.042 215H121.312Z" fill="#F15239"/>
<path d="M11.3877 240.766C11.3877 242.136 10.8823 243.222 9.87158 244.023C8.86833 244.824 7.5319 245.225 5.8623 245.225C3.85579 245.225 2.31722 245.004 1.24658 244.562V243.417C2.42952 243.918 3.93815 244.169 5.77246 244.169C7.12012 244.169 8.18701 243.862 8.97314 243.248C9.76676 242.627 10.1636 241.814 10.1636 240.811C10.1636 240.19 10.0326 239.677 9.77051 239.272C9.50846 238.861 9.08171 238.486 8.49023 238.149C7.89876 237.812 7.03027 237.449 5.88477 237.06C4.20768 236.484 3.0472 235.862 2.40332 235.196C1.76693 234.522 1.44873 233.627 1.44873 232.512C1.44873 231.284 1.9279 230.284 2.88623 229.513C3.85205 228.735 5.09115 228.345 6.60352 228.345C8.14583 228.345 9.59456 228.637 10.9497 229.221L10.5342 230.209C9.17155 229.64 7.86882 229.356 6.62598 229.356C5.41309 229.356 4.44727 229.637 3.72852 230.198C3.00977 230.76 2.65039 231.523 2.65039 232.489C2.65039 233.096 2.75895 233.594 2.97607 233.983C3.20068 234.372 3.5638 234.724 4.06543 235.039C4.56706 235.346 5.42806 235.716 6.64844 236.15C7.92871 236.592 8.89079 237.023 9.53467 237.442C10.1785 237.854 10.6465 238.325 10.9385 238.857C11.238 239.381 11.3877 240.017 11.3877 240.766ZM43.3047 245H42.1479V236.925H32.5571V245H31.4116V228.581H32.5571V235.87H42.1479V228.581H43.3047V245ZM73.4922 245H64.519V228.581H73.4922V229.637H65.6646V235.847H73.0542V236.903H65.6646V243.944H73.4922V245ZM99.4795 245V228.581H102.961V245H99.4795ZM32.6807 267.768C32.6807 270.374 32.0293 272.436 30.7266 273.956C29.4238 275.468 27.627 276.225 25.3359 276.225C23.0524 276.225 21.2593 275.468 19.9565 273.956C18.6538 272.436 18.0024 270.366 18.0024 267.746C18.0024 265.133 18.6576 263.077 19.9678 261.58C21.2855 260.075 23.0824 259.323 25.3584 259.323C27.6494 259.323 29.4425 260.079 30.7378 261.591C32.033 263.096 32.6807 265.155 32.6807 267.768ZM19.249 267.768C19.249 270.119 19.7731 271.938 20.8213 273.226C21.8695 274.506 23.3743 275.146 25.3359 275.146C27.3125 275.146 28.8211 274.51 29.8618 273.237C30.91 271.965 31.4341 270.141 31.4341 267.768C31.4341 265.402 30.91 263.59 29.8618 262.333C28.8211 261.067 27.32 260.435 25.3584 260.435C23.4043 260.435 21.8957 261.071 20.8325 262.344C19.7769 263.617 19.249 265.425 19.249 267.768ZM61.9922 276H53.019V259.581H61.9922V260.637H54.1646V266.847H61.5542V267.903H54.1646V274.944H61.9922V276ZM93.3027 276H91.8989L85.5986 267.33L83.4087 269.262V276H82.2632V259.581H83.4087V268.116L85.228 266.297L91.6631 259.581H93.123L86.396 266.521L93.3027 276ZM118.875 276L114.921 263.119H114.82C114.963 265.739 115.034 267.487 115.034 268.363V276H111.923V259.581H116.662L120.548 272.137H120.615L124.737 259.581H129.476V276H126.23V268.229C126.23 267.862 126.234 267.439 126.242 266.959C126.257 266.48 126.309 265.208 126.399 263.141H126.298L122.064 276H118.875Z" fill="#F15239"/>
</svg>
